# xmcd CD database file
# Copyright (C) 1993-1998 Ti Kan
#
# Track frame offsets:
#	182
#	18355
#	39820
#	64512
#	82977
#	108357
#	125202
#	143572
#	164312
#	179795
#	203337
#	221767
#	238002
#	257495
#	275362
#	295215
#	315537
#	333207
#
# Disc length: 4781 seconds
#
# Revision: 1
# Processed by: cddbd v1.4b41PL1 Copyright (c) Steve Scherf et al.
# Submitted via: CDValet v3.31 - Copyright (c) 1997 Greg Leichner
#
DISCID=fa12ab12
DTITLE=Various Artist - 360o Of Black Music
DYEAR=1900
DGENRE=
TTITLE0=It's About Time
TTITLE1=I Can Do That
TTITLE2=Freind Of Mine
TTITLE3=Bananas
TTITLE4=Wherever You Go
TTITLE5=Rise and Be Healed
TTITLE6=I Should Cheat On You
TTITLE7=Watch Your Back
TTITLE8=Brickhouse
TTITLE9=How Should I Say I'm Sorry
TTITLE10=Under Pressure
TTITLE11=Stop Being Greedy
TTITLE12=Shining Star
TTITLE13=Destiny
TTITLE14=Dream Away
TTITLE15=Take The City
TTITLE16=Two Way Street
TTITLE17=Yearning For Your Love
EXTD=
EXTT0=
EXTT1=
EXTT2=
EXTT3=
EXTT4=
EXTT5=
EXTT6=
EXTT7=
EXTT8=
EXTT9=
EXTT10=
EXTT11=
EXTT12=
EXTT13=
EXTT14=
EXTT15=
EXTT16=
EXTT17=
PLAYORDER=
